<mxfile host="www.draw.io" modified="2019-11-18T03:06:49.365Z" agent="Mozilla/5.0 (Windows NT 10.0; Win64; x64) AppleWebKit/537.36 (KHTML, like Gecko) Chrome/73.0.3683.86 Safari/537.36" etag="04eCaBUhQ6pFtex9ASbC" version="12.2.6" type="github" pages="1">
  <diagram id="lnvHPtoKEz7chR7b1oI2" name="Page-1">
    <mxGraphModel dx="748" dy="389" grid="1" gridSize="10" guides="1" tooltips="1" connect="1" arrows="1" fold="1" page="1" pageScale="1" pageWidth="827" pageHeight="1169" math="0" shadow="0">
      <root>
        <mxCell id="0"/>
        <mxCell id="1" parent="0"/>
        <mxCell id="oYJkTVz_eWUKZaBhh7YY-1" value="" style="pointerEvents=1;shadow=0;dashed=0;html=1;strokeColor=none;labelPosition=center;verticalLabelPosition=bottom;verticalAlign=top;outlineConnect=0;align=center;shape=mxgraph.office.concepts.home;fillColor=#DA4026;" parent="1" vertex="1">
          <mxGeometry x="210" y="160" width="51" height="50" as="geometry"/>
        </mxCell>
        <mxCell id="oYJkTVz_eWUKZaBhh7YY-2" value="" style="pointerEvents=1;shadow=0;dashed=0;html=1;strokeColor=none;labelPosition=center;verticalLabelPosition=bottom;verticalAlign=top;outlineConnect=0;align=center;shape=mxgraph.office.concepts.home;fillColor=#DA4026;" parent="1" vertex="1">
          <mxGeometry x="390" y="160" width="51" height="50" as="geometry"/>
        </mxCell>
        <mxCell id="oYJkTVz_eWUKZaBhh7YY-3" value="" style="pointerEvents=1;shadow=0;dashed=0;html=1;strokeColor=none;labelPosition=center;verticalLabelPosition=bottom;verticalAlign=top;outlineConnect=0;align=center;shape=mxgraph.office.concepts.home;fillColor=#DA4026;" parent="1" vertex="1">
          <mxGeometry x="60" y="170" width="51" height="50" as="geometry"/>
        </mxCell>
        <mxCell id="oYJkTVz_eWUKZaBhh7YY-4" value="" style="pointerEvents=1;shadow=0;dashed=0;html=1;strokeColor=none;labelPosition=center;verticalLabelPosition=bottom;verticalAlign=top;outlineConnect=0;align=center;shape=mxgraph.office.concepts.home;fillColor=#DA4026;" parent="1" vertex="1">
          <mxGeometry x="200" y="270" width="51" height="50" as="geometry"/>
        </mxCell>
        <mxCell id="oYJkTVz_eWUKZaBhh7YY-5" value="" style="pointerEvents=1;shadow=0;dashed=0;html=1;strokeColor=none;labelPosition=center;verticalLabelPosition=bottom;verticalAlign=top;outlineConnect=0;align=center;shape=mxgraph.office.concepts.home;fillColor=#DA4026;" parent="1" vertex="1">
          <mxGeometry x="210" y="70" width="51" height="50" as="geometry"/>
        </mxCell>
        <mxCell id="oYJkTVz_eWUKZaBhh7YY-6" value="" style="pointerEvents=1;shadow=0;dashed=0;html=1;strokeColor=none;labelPosition=center;verticalLabelPosition=bottom;verticalAlign=top;outlineConnect=0;align=center;shape=mxgraph.office.concepts.home;fillColor=#DA4026;" parent="1" vertex="1">
          <mxGeometry x="550" y="170" width="51" height="50" as="geometry"/>
        </mxCell>
        <mxCell id="oYJkTVz_eWUKZaBhh7YY-7" value="" style="pointerEvents=1;shadow=0;dashed=0;html=1;strokeColor=none;labelPosition=center;verticalLabelPosition=bottom;verticalAlign=top;outlineConnect=0;align=center;shape=mxgraph.office.concepts.home;fillColor=#DA4026;" parent="1" vertex="1">
          <mxGeometry x="441" y="80" width="51" height="50" as="geometry"/>
        </mxCell>
        <mxCell id="oYJkTVz_eWUKZaBhh7YY-8" value="" style="pointerEvents=1;shadow=0;dashed=0;html=1;strokeColor=none;labelPosition=center;verticalLabelPosition=bottom;verticalAlign=top;outlineConnect=0;align=center;shape=mxgraph.office.concepts.home;fillColor=#DA4026;" parent="1" vertex="1">
          <mxGeometry x="441" y="280" width="51" height="50" as="geometry"/>
        </mxCell>
        <mxCell id="uBAiRjLN1DPyZTyK-le6-1" value="" style="shape=document;whiteSpace=wrap;html=1;boundedLbl=1;" vertex="1" parent="1">
          <mxGeometry x="106" y="265" width="120" height="80" as="geometry"/>
        </mxCell>
      </root>
    </mxGraphModel>
  </diagram>
</mxfile>
